<?xml version="1.0" standalone="no"?>
<!DOCTYPE svg PUBLIC "-//W3C//DTD SVG 20010904//EN"
 "http://www.w3.org/TR/2001/REC-SVG-20010904/DTD/svg10.dtd">
<svg version="1.0" xmlns="http://www.w3.org/2000/svg"
 width="1477.000000pt" height="1477.000000pt" viewBox="0 0 1477.000000 1477.000000"
 preserveAspectRatio="xMidYMid meet">

<g transform="translate(0.000000,1477.000000) scale(0.100000,-0.100000)"
fill="#000000" stroke="none">
<path d="M7225 14613 c-914 -23 -1848 -222 -2690 -573 -297 -124 -694 -326
-980 -498 -1281 -773 -2310 -1948 -2898 -3308 -105 -243 -220 -545 -211 -553
5 -4 68 -29 139 -55 72 -27 208 -77 304 -112 96 -35 179 -64 186 -64 6 0 19
24 30 53 41 116 182 460 242 592 835 1820 2458 3156 4423 3640 426 105 919
175 1343 192 l168 6 -62 -98 c-125 -199 -222 -437 -255 -625 -12 -71 -15 -134
-11 -250 5 -189 24 -269 100 -424 l54 -108 -36 -15 c-303 -126 -674 -434
-1037 -863 -107 -126 -283 -353 -364 -468 -36 -51 -89 -128 -119 -170 -153
-217 -403 -628 -591 -972 -115 -209 -317 -610 -384 -760 -124 -277 -169 -382
-246 -575 -113 -283 -179 -473 -291 -832 -68 -221 -139 -566 -160 -780 -39
-398 58 -567 326 -566 143 0 266 47 429 161 155 109 391 360 417 444 21 67
-29 138 -96 138 -38 0 -54 -13 -120 -95 -65 -80 -170 -182 -208 -202 -45 -23
-96 -33 -122 -23 -41 16 -50 61 -49 245 9 1089 623 2778 1387 3815 287 389
638 726 912 875 176 96 352 141 515 132 116 -7 160 -19 205 -59 31 -27 35 -36
35 -80 0 -45 4 -54 39 -89 31 -31 46 -39 76 -39 49 0 82 36 120 129 15 39 31
71 35 71 4 0 68 -40 141 -88 168 -111 232 -152 444 -287 282 -178 302 -191
525 -329 118 -73 388 -240 600 -371 904 -560 1290 -824 1715 -1177 130 -107
453 -429 539 -538 220 -276 373 -577 437 -857 26 -118 36 -335 19 -455 -42
-310 -216 -633 -490 -909 -243 -244 -543 -378 -990 -441 -123 -17 -615 -17
-765 0 -111 13 -498 68 -545 78 -24 6 -24 6 13 27 109 61 278 206 398 339 74
83 79 91 79 134 0 60 -40 104 -95 104 -34 0 -48 -11 -160 -118 -116 -113 -157
-142 -217 -156 -20 -5 -33 -1 -48 14 -74 74 48 581 255 1055 64 146 189 399
246 497 21 36 39 78 39 93 0 70 -53 125 -120 125 -32 0 -290 -125 -466 -225
-125 -72 -369 -234 -411 -274 -28 -25 -33 -37 -33 -76 0 -40 5 -52 34 -81 51
-51 63 -48 184 44 40 30 75 53 77 50 3 -3 -16 -47 -41 -99 -251 -511 -397
-1058 -340 -1279 9 -36 23 -75 32 -87 18 -28 37 -27 -211 -8 -104 8 -232 15
-282 15 -51 0 -93 2 -93 4 0 2 58 61 128 132 70 71 142 151 160 178 56 86 38
165 -43 187 -50 14 -74 -1 -149 -95 -113 -142 -172 -189 -255 -202 -57 -9
-136 31 -198 101 -100 112 -213 338 -278 557 l-33 113 30 55 c122 219 270 396
408 485 100 65 178 90 283 90 82 0 89 -2 108 -25 26 -33 21 -98 -13 -170 -20
-42 -24 -60 -17 -84 24 -83 118 -109 169 -47 36 42 112 190 146 281 39 108 40
213 1 292 -53 109 -137 160 -272 166 -140 6 -247 -28 -397 -128 -99 -67 -320
-296 -420 -438 l-87 -122 -5 42 c-3 24 -12 105 -21 181 -31 257 -89 398 -185
447 -48 25 -153 27 -226 5 -59 -17 -155 -77 -221 -137 -104 -96 -228 -295
-240 -388 -9 -68 28 -110 95 -110 44 0 66 23 123 127 52 94 106 163 126 163 6
0 15 -58 22 -132 32 -372 45 -483 68 -593 13 -66 27 -123 29 -126 5 -8 -91
-151 -158 -236 -74 -93 -197 -204 -264 -237 -39 -20 -79 -31 -120 -34 -57 -4
-62 -2 -82 23 -26 33 -28 79 -6 150 27 86 -11 147 -91 147 -46 0 -63 -16 -105
-100 l-32 -62 -30 25 c-19 16 -42 25 -65 25 -32 0 -48 -12 -157 -119 -119
-116 -153 -142 -209 -155 -68 -16 -86 34 -68 189 37 325 234 854 503 1355 53
98 56 108 48 145 -13 56 -58 95 -111 95 -94 0 -747 -371 -881 -501 -43 -41
-48 -71 -21 -126 10 -22 29 -41 50 -49 42 -18 69 -6 168 71 38 30 70 53 72 52
1 -2 -15 -39 -37 -82 -224 -459 -345 -848 -357 -1146 -7 -158 5 -210 63 -278
49 -56 117 -89 214 -102 201 -27 392 67 654 320 60 58 106 97 102 86 -15 -38
-19 -240 -6 -281 32 -101 124 -145 256 -124 156 25 301 108 452 258 83 84 240
280 288 361 10 17 21 31 25 31 3 0 11 -19 18 -42 25 -87 141 -307 206 -392 36
-47 64 -86 63 -87 -12 -3 -44 -7 -108 -13 -372 -34 -798 -132 -1149 -262 -80
-30 -254 -108 -386 -173 -132 -66 -311 -149 -398 -185 -175 -73 -210 -90 -162
-80 17 3 37 8 45 10 48 16 -21 -21 -125 -66 -446 -193 -1018 -348 -1199 -325
-135 17 -257 65 -346 136 l-51 40 -107 -17 c-59 -10 -111 -21 -116 -25 -5 -4
45 -61 110 -126 117 -116 194 -171 304 -218 62 -26 61 -25 116 -118 136 -233
1373 -2290 1448 -2409 7 -13 85 -140 171 -283 324 -533 624 -1020 887 -1438
55 -87 98 -160 96 -162 -2 -3 -78 7 -168 20 -1191 180 -2298 661 -3220 1399
-626 502 -1151 1111 -1560 1811 -155 266 -279 518 -425 865 -27 63 -51 118
-55 123 -3 4 -100 -32 -216 -79 -115 -47 -255 -104 -311 -126 -57 -22 -103
-45 -103 -52 0 -31 175 -426 297 -670 514 -1028 1260 -1913 2188 -2593 324
-237 579 -396 924 -576 381 -199 742 -352 1139 -481 570 -186 1138 -301 1772
-358 196 -18 1037 -18 1215 0 368 36 633 75 907 131 1645 339 3119 1217 4173
2486 317 382 555 732 792 1165 126 229 305 610 360 765 25 70 97 360 108 439
l7 41 -154 33 c-391 83 -508 106 -514 100 -3 -4 -12 -33 -19 -65 -7 -32 -23
-103 -35 -158 -27 -125 -68 -234 -165 -445 -645 -1402 -1778 -2534 -3201
-3199 -771 -360 -1581 -565 -2454 -622 -182 -12 -864 -6 -938 7 l-33 6 26 33
c212 278 712 1036 1230 1865 211 338 214 342 670 1085 256 417 356 582 861
1425 249 415 459 763 466 772 12 15 22 16 98 6 135 -17 513 -14 675 6 192 24
368 59 530 106 1027 301 1637 1056 1574 1951 -31 449 -169 859 -415 1229 -114
173 -195 271 -364 441 -201 202 -430 386 -715 575 -371 247 -503 321 -1540
864 -562 294 -894 485 -1220 703 -99 66 -198 133 -220 149 -91 66 -271 201
-290 216 -11 9 -40 33 -65 52 -181 139 -535 453 -597 528 -54 67 -125 212
-150 307 -14 55 -18 108 -18 250 0 198 9 260 68 445 l33 105 209 -1 c306 -2
627 -34 990 -100 1034 -188 1995 -605 2830 -1226 845 -629 1520 -1437 1979
-2367 50 -102 101 -208 113 -236 50 -119 134 -310 138 -313 2 -2 106 39 232
91 125 53 251 104 278 115 28 11 67 27 87 36 l37 16 -29 67 c-107 255 -156
361 -251 553 -794 1593 -2176 2856 -3859 3525 -80 31 -165 65 -190 75 -136 54
-562 184 -775 236 -639 157 -1353 234 -2010 217z m665 -8363 c315 -15 910 -70
1190 -110 36 -5 71 -10 78 -10 17 0 -37 -103 -152 -286 -185 -296 -369 -533
-582 -753 -466 -482 -924 -740 -1469 -827 -142 -23 -478 -23 -735 0 -719 64
-1270 227 -1638 484 -95 66 -232 201 -289 284 -56 81 -87 137 -80 144 3 3 51
12 108 20 293 41 508 139 1054 484 271 171 478 288 573 325 513 197 1174 281
1942 245z"/>
<path d="M6641 9709 c-140 -100 -219 -170 -371 -326 -188 -192 -203 -210 -225
-266 -19 -51 -15 -143 9 -202 21 -50 74 -104 109 -110 57 -11 79 6 142 112
149 252 310 466 469 624 62 63 96 104 96 119 0 53 -56 109 -110 109 -27 1 -54
-13 -119 -60z"/>
<path d="M10320 9719 c-226 -158 -554 -479 -603 -588 -42 -95 -4 -257 73 -308
75 -52 112 -26 216 150 129 219 314 459 463 600 53 52 61 63 61 96 0 48 -42
90 -96 98 -35 4 -47 -1 -114 -48z"/>
<path d="M3013 8570 c-187 -49 -358 -154 -528 -325 -157 -156 -276 -329 -383
-555 -180 -381 -217 -761 -97 -1000 90 -178 254 -261 520 -263 246 -1 416 50
634 190 156 101 341 271 379 349 19 40 10 94 -23 131 -19 23 -32 28 -69 28
-44 0 -48 -3 -112 -73 -182 -199 -443 -286 -648 -216 -66 23 -127 85 -156 160
-19 49 -24 83 -27 199 -2 77 0 167 4 200 l8 60 55 7 c30 5 127 22 215 39 394
76 662 183 811 322 84 78 118 131 140 219 57 223 -112 465 -372 532 -87 22
-258 20 -351 -4z m70 -343 c67 -51 99 -135 87 -224 -17 -119 -175 -220 -433
-277 -177 -38 -187 -39 -187 -13 0 45 52 215 90 293 83 172 201 257 346 251
49 -2 69 -8 97 -30z"/>
<path d="M10670 8574 c-137 -37 -327 -160 -458 -299 -122 -128 -136 -167 -81
-230 25 -28 38 -35 68 -35 48 0 77 21 149 106 33 39 82 85 108 102 43 29 109
51 120 40 9 -10 -19 -222 -52 -388 -81 -409 -218 -863 -364 -1205 -61 -144
-49 -211 41 -235 109 -30 424 62 479 140 11 16 39 91 61 166 210 718 437 1141
683 1270 61 32 82 38 151 42 70 4 83 1 106 -17 16 -12 29 -35 33 -56 10 -49
44 -84 89 -92 33 -5 41 -2 71 30 41 43 141 240 161 317 30 114 15 196 -52 270
-64 71 -132 94 -265 88 -114 -5 -183 -25 -277 -80 -71 -42 -210 -181 -281
-281 l-55 -78 -5 133 c-4 113 -9 140 -29 181 -44 89 -122 127 -260 126 -47 0
-111 -7 -141 -15z"/>
<path d="M472 7639 c-216 -42 -374 -268 -334 -480 25 -137 114 -253 239 -312
64 -30 74 -32 183 -32 109 0 119 2 183 32 123 58 215 181 236 315 46 288 -216
535 -507 477z"/>
<path d="M14113 7635 c-130 -35 -227 -114 -285 -232 -31 -64 -33 -74 -33 -173
1 -85 5 -116 23 -161 33 -82 126 -180 210 -221 64 -31 72 -33 182 -33 155 0
206 20 304 119 96 96 121 160 121 301 -1 92 -3 105 -33 168 -89 183 -300 283
-489 232z"/>
</g>
</svg>
